<svg width="99" height="125" viewBox="0 0 99 125" fill="none" xmlns="http://www.w3.org/2000/svg">
<path d="M47.4685 1.75228C47.7603 -0.583921 51.1459 -0.583923 51.4377 1.75228L56.8002 44.6905C56.9673 46.029 58.3844 46.8216 59.6124 46.2634L96.0617 29.6942C98.1559 28.7421 99.9376 31.4985 98.2096 33.0171L66.5304 60.8591C65.6242 61.6556 65.6242 63.0671 66.5304 63.8636L98.2096 91.7055C99.9376 93.2242 98.1559 95.9805 96.0617 95.0285L59.6124 78.4593C58.3845 77.9011 56.9673 78.6936 56.8002 80.0321L51.4377 122.97C51.1459 125.307 47.7603 125.307 47.4685 122.97L42.1061 80.0321C41.9389 78.6936 40.5218 77.9011 39.2938 78.4593L2.8446 95.0285C0.750351 95.9805 -1.03134 93.2242 0.696625 91.7055L32.3758 63.8636C33.2821 63.0671 33.2821 61.6556 32.3758 60.8591L0.696617 33.0171C-1.03135 31.4985 0.750341 28.7421 2.84459 29.6942L39.2938 46.2634C40.5218 46.8216 41.9389 46.029 42.1061 44.6905L47.4685 1.75228Z" fill="#DFE365"/>
</svg>
